<?xml version="1.0" encoding="utf-8"?>
<!-- Generator: Adobe Illustrator 24.0.1, SVG Export Plug-In . SVG Version: 6.00 Build 0)  -->
<svg version="1.1" id="b8854e13-32e1-439c-872f-2ce52f2dcf56"
	 xmlns="http://www.w3.org/2000/svg" xmlns:xlink="http://www.w3.org/1999/xlink" x="0px" y="0px" viewBox="0 0 1092.6 614.6"
	 style="enable-background:new 0 0 1092.6 614.6;" xml:space="preserve">
<style type="text/css">
	.st0{fill:url(#SVGID_1_);}
	.st1{fill:url(#SVGID_2_);}
	.st2{fill:url(#SVGID_3_);}
	.st3{fill:#FFFFFF;stroke:#000000;stroke-miterlimit:10;}
	.st4{fill:none;}
	.st5{fill:url(#SVGID_4_);}
</style>
<title>bliss</title>
<g id="b5d9656f-05ed-4c4c-a1e2-f3e34b1a7ba0">
	
		<linearGradient id="SVGID_1_" gradientUnits="userSpaceOnUse" x1="4858.2407" y1="-3147.7283" x2="4719.4409" y2="-1873.6683" gradientTransform="matrix(0.57 0 0 0.57 -2182.72 1733.67)">
		<stop  offset="0" style="stop-color:#AACAF3"/>
		<stop  offset="0.95" style="stop-color:#1D57DF"/>
	</linearGradient>
	<rect x="0.3" class="st0" width="1092.3" height="614.4"/>
	
		<linearGradient id="SVGID_2_" gradientUnits="userSpaceOnUse" x1="5679.6846" y1="-3007.6316" x2="5679.6846" y2="-3007.6316" gradientTransform="matrix(0.57 0 0 0.57 -2182.72 1733.6801)">
		<stop  offset="0" style="stop-color:#AACAF3"/>
		<stop  offset="0.95" style="stop-color:#1D57DF"/>
	</linearGradient>
	<path class="st1" d="M1054.7,19.3"/>
	
		<linearGradient id="SVGID_3_" gradientUnits="userSpaceOnUse" x1="5746.3511" y1="-3040.4038" x2="5746.3511" y2="-3040.4038" gradientTransform="matrix(0.57 0 0 0.57 -2182.72 1733.6801)">
		<stop  offset="0" style="stop-color:#AACAF3"/>
		<stop  offset="0.95" style="stop-color:#1D57DF"/>
	</linearGradient>
	<path class="st2" d="M1092.7,0.6"/>
</g>
<path class="st3" d="M191.6,254.5"/>
<line class="st4" x1="0.6" y1="19.5" x2="0.6" y2="0.5"/>
<linearGradient id="SVGID_4_" gradientUnits="userSpaceOnUse" x1="5749.1934" y1="-2432.3516" x2="5749.1934" y2="-2432.3516" gradientTransform="matrix(0.57 0 0 0.57 -2182.72 1733.6801)">
	<stop  offset="0.14" style="stop-color:#3D5411"/>
	<stop  offset="0.33" style="stop-color:#82A523"/>
	<stop  offset="0.58" style="stop-color:#4F6916"/>
</linearGradient>
<path class="st5" d="M1094.3,347.2"/>
<g id="Layer_2_1_">
	<g id="Layer_2_2_">
		<polyline points="544.6,251.3 558.4,251.3 546.8,284.7 531.1,284.7 		"/>
		<polyline points="559.6,260.7 573,260.7 583.7,271.5 583.7,314.6 573.2,325.2 503.2,325.2 519.4,309 562.3,309 562.5,276.8 
			554,276.8 		"/>
		<polyline points="534.7,257.2 527.7,274.1 519.2,274.1 519.2,300 499.5,319.9 499.5,268.4 510.9,257.2 		"/>
	</g>
</g>
</svg>
